<?xml version="1.0" encoding="UTF-8" standalone="no"?>
<svg width="70px" height="70px" viewBox="0 0 70 70" version="1.1" xmlns="http://www.w3.org/2000/svg" xmlns:xlink="http://www.w3.org/1999/xlink">
    <!-- Generator: Sketch 3.8.3 (29802) - http://www.bohemiancoding.com/sketch -->
    <title>icon-02-doc-graph</title>
    <desc>Created with Sketch.</desc>
    <defs></defs>
    <g id="Page-1" stroke="none" stroke-width="1" fill="none" fill-rule="evenodd">
        <g id="kontur-products-icons-features-iconset" transform="translate(-840.000000, -510.000000)">
            <g id="Text" transform="translate(68.000000, 51.000000)"></g>
            <g id="icon-02-doc-graph" transform="translate(840.000000, 510.000000)" stroke="#A23A99" stroke-width="2">
                <g id="Icon" transform="translate(10.000000, 4.000000)">
                    <path d="M29.769932,23.8500377 L20.4258733,29.0411812 M20.3090196,33.5348146 L29.6678238,37.9542505 M29.5429713,42.4761276 L20.4924342,47.5042038" id="Connections"></path>
                    <path d="M34,26.3368792 C36.7614237,26.3368792 39,24.0983029 39,21.3368792 C39,18.5754554 36.7614237,16.3368792 34,16.3368792 C31.2385763,16.3368792 29,18.5754554 29,21.3368792 C29,24.0983029 31.2385763,26.3368792 34,26.3368792 Z M16,36.3994257 C18.7614237,36.3994257 21,34.1608494 21,31.3994257 C21,28.6380019 18.7614237,26.3994257 16,26.3994257 C13.2385763,26.3994257 11,28.6380019 11,31.3994257 C11,34.1608494 13.2385763,36.3994257 16,36.3994257 Z M34,45.4619722 C36.7614237,45.4619722 39,43.2233959 39,40.4619722 C39,37.7005484 36.7614237,35.4619722 34,35.4619722 C31.2385763,35.4619722 29,37.7005484 29,40.4619722 C29,43.2233959 31.2385763,45.4619722 34,45.4619722 Z M16,54.6859732 C18.7614237,54.6859732 21,52.4473969 21,49.6859732 C21,46.9245494 18.7614237,44.6859732 16,44.6859732 C13.2385763,44.6859732 11,46.9245494 11,49.6859732 C11,52.4473969 13.2385763,54.6859732 16,54.6859732 Z" id="Items"></path>
                    <path d="M21,0 L48.0025735,0 C49.1057217,0 50,0.900351021 50,1.99263021 L50,60.0073698 C50,61.1078691 49.1109357,62 48.0090859,62 L1.99091407,62 C0.891362589,62 0,61.1055269 0,59.9947301 L0,21 L21,0 Z M21.0000007,0 L21,19.0073698 C21,20.1078691 20.1109357,21 19.0090859,21 L6.74277544e-07,21.0000002" id="Doc"></path>
                </g>
            </g>
        </g>
    </g>
</svg>