<?xml version="1.0" encoding="UTF-8" standalone="no"?>
<svg width="70px" height="70px" viewBox="0 0 70 70" version="1.1" xmlns="http://www.w3.org/2000/svg" xmlns:xlink="http://www.w3.org/1999/xlink">
    <!-- Generator: Sketch 3.8.3 (29802) - http://www.bohemiancoding.com/sketch -->
    <title>icon-02-doc-formatxml</title>
    <desc>Created with Sketch.</desc>
    <defs></defs>
    <g id="Page-1" stroke="none" stroke-width="1" fill="none" fill-rule="evenodd">
        <g id="kontur-products-icons-features-iconset" transform="translate(-620.000000, -510.000000)">
            <g id="Text" transform="translate(68.000000, 51.000000)"></g>
            <g id="icon-02-doc-formatxml" transform="translate(620.000000, 510.000000)">
                <g id="Icon" transform="translate(5.000000, 8.000000)">
                    <g id="Doc" transform="translate(5.000000, 6.000000)" stroke="#A23A99" stroke-width="2">
                        <path d="M0,37 L2.08379006e-13,47.9975267 C2.18738005e-13,48.544239 0.451677426,49 1.00884977,49 L35.9911502,49 C36.5586968,49 37,48.551838 37,47.9990023 L37,10.8847763 L26.1152237,0 L1.00884977,0 C0.441303179,0 2.22934056e-13,0.449089982 2.17457509e-13,1.00307055 L0,23" id="Rectangle-1804"></path>
                        <path d="M37,12 L26.0024733,12 C25.4488226,12 25,11.544239 25,10.9975267 L25,0" id="Rectangle-1805"></path>
                    </g>
                    <g id="Doc-2" transform="translate(22.000000, 0.000000)" stroke="#A23A99" stroke-width="2">
                        <path d="M20,49 L35.9911502,49 C36.5586968,49 37,48.551838 37,47.9990023 L37,10.8847763 L26.1152237,0 L1.00884977,0 C0.441303179,0 2.22934056e-13,0.449089982 2.17457509e-13,1.00307055 L0,6" id="Rectangle-1804"></path>
                        <path d="M37,12 L26.0024733,12 C25.4488226,12 25,11.544239 25,10.9975267 L25,0" id="Rectangle-1805"></path>
                        <polyline id="Path" points="20 22 31 22 31 43 20 43"></polyline>
                        <path d="M20,29 L31,29 M31,36 L20,36" id="Path-2"></path>
                    </g>
                    <g id="XML" transform="translate(0.000000, 28.000000)">
                        <rect id="Path" stroke="#A23A99" stroke-width="2" x="1.782118e-13" y="1" width="29" height="14" rx="1"></rect>
                        <path d="M10.1704102,12 L8.11328125,12 L6.78662109,9.49169922 C6.73649063,9.39859979 6.68457058,9.22672651 6.63085938,8.97607422 L6.609375,8.97607422 C6.58430977,9.09423887 6.52522833,9.27327354 6.43212891,9.51318359 L5.10009766,12 L3.03222656,12 L5.48681641,8.14892578 L3.24169922,4.29785156 L5.35253906,4.29785156 L6.45361328,6.60742188 C6.53955121,6.79003998 6.61653612,7.00667192 6.68457031,7.25732422 L6.70605469,7.25732422 C6.74902365,7.10693284 6.82958925,6.88313951 6.94775391,6.5859375 L8.17236328,4.29785156 L10.105957,4.29785156 L7.79638672,8.11669922 L10.1704102,12 Z M19.8652344,12 L18.1518555,12 L18.1518555,7.39160156 C18.1518555,6.89387772 18.1733396,6.34424129 18.2163086,5.74267578 L18.1733398,5.74267578 C18.0838212,6.21533439 18.0032556,6.55550026 17.9316406,6.76318359 L16.1269531,12 L14.7089844,12 L12.8720703,6.81689453 C12.8219399,6.6772454 12.7413743,6.31917606 12.6303711,5.74267578 L12.5820312,5.74267578 C12.628581,6.50179416 12.6518555,7.16780312 12.6518555,7.74072266 L12.6518555,12 L11.0888672,12 L11.0888672,4.29785156 L13.6293945,4.29785156 L15.203125,8.86328125 C15.3284511,9.22851745 15.4197588,9.59553852 15.4770508,9.96435547 L15.5092773,9.96435547 C15.6059575,9.53824657 15.7080073,9.1676448 15.8154297,8.85253906 L17.3891602,4.29785156 L19.8652344,4.29785156 L19.8652344,12 Z M26.203125,12 L21.6162109,12 L21.6162109,4.29785156 L23.3510742,4.29785156 L23.3510742,10.5927734 L26.203125,10.5927734 L26.203125,12 Z" id="XML-2" fill="#A23A99"></path>
                    </g>
                </g>
            </g>
        </g>
    </g>
</svg>