<?xml version="1.0" encoding="UTF-8" standalone="no"?>
<svg width="70px" height="70px" viewBox="0 0 70 70" version="1.1" xmlns="http://www.w3.org/2000/svg" xmlns:xlink="http://www.w3.org/1999/xlink">
    <!-- Generator: Sketch 3.8.3 (29802) - http://www.bohemiancoding.com/sketch -->
    <title>icon-02-doc-pageca</title>
    <desc>Created with Sketch.</desc>
    <defs>
        <path d="M36,11.5028229 L36,30.9943542 C36,33.7616406 33.7588961,36 30.9943542,36 L5.00564575,36 C2.23835942,36 0,33.7588961 0,30.9943542 L0,5.00564575 C0,2.23835942 2.24110394,0 5.00564575,0 L24.4971771,0 L36,0 L36,11.5028229 Z" id="path-1"></path>
        <mask id="mask-2" maskContentUnits="userSpaceOnUse" maskUnits="objectBoundingBox" x="0" y="0" width="36" height="36" fill="white">
            <use xlink:href="#path-1"></use>
        </mask>
    </defs>
    <g id="Page-1" stroke="none" stroke-width="1" fill="none" fill-rule="evenodd">
        <g id="kontur-products-icons-features-iconset" transform="translate(-510.000000, -620.000000)">
            <g id="Text" transform="translate(68.000000, 51.000000)"></g>
            <g id="icon-02-doc-pageca" transform="translate(510.000000, 620.000000)" stroke="#A23A99">
                <g id="Icon" transform="translate(8.000000, 5.000000)">
                    <g id="Paper" stroke-width="2">
                        <polyline id="Rectangle-1238" points="20 52 0 52 0 15.4302332 15.079546 0 41 0 41 27"></polyline>
                        <polyline id="Path-1342" points="0 15 15 15 15 0"></polyline>
                        <path d="M12,21 L29,21" id="Path-1344"></path>
                        <path d="M6,30 L17,30" id="Path-1345"></path>
                        <path d="M6,35 L17,35" id="Path-1346"></path>
                        <path d="M6,40 L17,40" id="Path-1347"></path>
                    </g>
                    <g id="ca-36x36" transform="translate(19.000000, 26.000000)">
                        <use mask="url(#mask-2)" stroke-width="4" xlink:href="#path-1"></use>
                        <path d="M18.030547,23.9999386 C18.0343134,23.9999235 18.0380791,23.9999057 18.0418442,23.9998851 L19.7679933,28 L25.2267869,27.9837127 L22.7211877,22.3277721 C24.4164142,20.9527053 25.4998779,18.852881 25.4998779,16.5 C25.4998779,12.3578642 22.1420138,9 17.9998779,9 C13.8577421,9 10.4998779,12.3578642 10.4998779,16.5 C10.4998779,18.9160648 11.6423132,21.0652993 13.4164524,22.4369724 L10.965332,27.9893728 L16.5006596,27.9680029 L18.030547,23.9999386 Z M17.9998779,20 C19.9328746,20 21.4998779,18.4329967 21.4998779,16.5 C21.4998779,14.5670033 19.9328746,13 17.9998779,13 C16.0668812,13 14.4998779,14.5670033 14.4998779,16.5 C14.4998779,18.4329967 16.0668812,20 17.9998779,20 Z" id="Oval-89" stroke-width="2"></path>
                    </g>
                </g>
            </g>
        </g>
    </g>
</svg>