<?xml version="1.0" encoding="UTF-8" standalone="no"?>
<svg width="70px" height="70px" viewBox="0 0 70 70" version="1.1" xmlns="http://www.w3.org/2000/svg" xmlns:xlink="http://www.w3.org/1999/xlink">
    <!-- Generator: Sketch 3.8.3 (29802) - http://www.bohemiancoding.com/sketch -->
    <title>icon-02-doc-formatblank</title>
    <desc>Created with Sketch.</desc>
    <defs></defs>
    <g id="Page-1" stroke="none" stroke-width="1" fill="none" fill-rule="evenodd">
        <g id="kontur-products-icons-features-iconset" transform="translate(-510.000000, -510.000000)">
            <g id="Text" transform="translate(68.000000, 51.000000)"></g>
            <g id="icon-02-doc-formatblank" transform="translate(510.000000, 510.000000)" stroke="#A23A99" stroke-width="2">
                <g id="Icon" transform="translate(5.000000, 8.000000)">
                    <g id="Doc" transform="translate(5.000000, 6.000000)">
                        <path d="M0,37 L2.08379006e-13,47.9975267 C2.18738005e-13,48.544239 0.451677426,49 1.00884977,49 L35.9911502,49 C36.5586968,49 37,48.551838 37,47.9990023 L37,10.8847763 L26.1152237,0 L1.00884977,0 C0.441303179,0 2.22934056e-13,0.449089982 2.17457509e-13,1.00307055 L0,23" id="Rectangle-1804"></path>
                        <path d="M37,12 L26.0024733,12 C25.4488226,12 25,11.544239 25,10.9975267 L25,0" id="Rectangle-1805"></path>
                    </g>
                    <g id="Doc-2" transform="translate(22.000000, 0.000000)">
                        <path d="M20,49 L35.9911502,49 C36.5586968,49 37,48.551838 37,47.9990023 L37,10.8847763 L26.1152237,0 L1.00884977,0 C0.441303179,0 2.22934056e-13,0.449089982 2.17457509e-13,1.00307055 L0,6" id="Rectangle-1804"></path>
                        <path d="M37,12 L26.0024733,12 C25.4488226,12 25,11.544239 25,10.9975267 L25,0" id="Rectangle-1805"></path>
                        <polyline id="Path" points="20 22 31 22 31 43 20 43"></polyline>
                        <path d="M20,29 L31,29 M31,36 L20,36" id="Path-2"></path>
                    </g>
                    <g id="Format" transform="translate(0.000000, 28.000000)">
                        <rect id="Path" x="1.782118e-13" y="1" width="29" height="14" rx="1"></rect>
                    </g>
                </g>
            </g>
        </g>
    </g>
</svg>