<?xml version="1.0" encoding="UTF-8" standalone="no"?>
<svg width="70px" height="70px" viewBox="0 0 70 70" version="1.1" xmlns="http://www.w3.org/2000/svg" xmlns:xlink="http://www.w3.org/1999/xlink">
    <!-- Generator: Sketch 3.8.3 (29802) - http://www.bohemiancoding.com/sketch -->
    <title>icon-02-doc-new</title>
    <desc>Created with Sketch.</desc>
    <defs></defs>
    <g id="Page-1" stroke="none" stroke-width="1" fill="none" fill-rule="evenodd">
        <g id="kontur-products-icons-features-iconset" transform="translate(-70.000000, -730.000000)">
            <g id="Text" transform="translate(68.000000, 51.000000)" font-size="14" font-family="SegoeUI, Segoe UI" line-spacing="110" fill="#D0011B" font-weight="normal">
                <text id="Бизнес-и-бухгалтерия">
                    <tspan x="1" y="114">Бизнес и бухгалтерия</tspan>
                    <tspan x="1" y="224"></tspan>
                    <tspan x="1" y="334"></tspan>
                    <tspan x="1" y="444">Документы</tspan>
                    <tspan x="1" y="554"></tspan>
                    <tspan x="1" y="664"></tspan>
                    <tspan x="1" y="774">Сертификаты и подписи</tspan>
                    <tspan x="1" y="884">Компьютерные технологии</tspan>
                    <tspan x="1" y="994"></tspan>
                    <tspan x="1" y="1104"></tspan>
                    <tspan x="1" y="1214">Безопасность</tspan>
                    <tspan x="1" y="1324"></tspan>
                    <tspan x="1" y="1434">Обучение</tspan>
                    <tspan x="1" y="1544">Контролирующие органы</tspan>
                    <tspan x="1" y="1654">Государство</tspan>
                    <tspan x="1" y="1764">Здания</tspan>
                    <tspan x="1" y="1874">Люди</tspan>
                    <tspan x="1" y="1984">Символы</tspan>
                    <tspan x="1" y="2094"></tspan>
                    <tspan x="1" y="2204">Другое</tspan>
                    <tspan x="1" y="2314"></tspan>
                    <tspan x="1" y="2424">Акции</tspan>
                    <tspan x="1" y="2534">Контур</tspan>
                </text>
            </g>
            <g id="icon-02-doc-new" transform="translate(70.000000, 730.000000)" stroke-width="2" stroke="#A23A99">
                <g id="Icon" transform="translate(2.000000, 4.000000)">
                    <polyline id="Rectangle-3155" points="54 13 61 13 61 62 24 62 24 55"></polyline>
                    <polyline id="Rectangle-3154" points="30 7 54 7 54 55 16 55 16 39"></polyline>
                    <path d="M21.4999996,10.4999996 C25.3890871,14.3890871 31.5563492,16 31.5563492,16 C31.5563492,16 25.3890869,17.6109123 21.4999996,21.4999996 C17.6109123,25.3890869 16,31.5563492 16,31.5563492 C16,31.5563492 14.3890867,25.3890867 10.4999996,21.4999996 C6.6109125,17.6109125 0.443650814,16 0.443650814,16 C0.443650814,16 6.61091232,14.3890869 10.4999996,10.4999996 C14.3890869,6.61091232 16,0.443650814 16,0.443650814 C16,0.443650814 17.6109121,6.61091213 21.4999996,10.4999996 Z" id="Rectangle-3156" stroke-linejoin="round"></path>
                    <path d="M25,30 L47,30" id="Path-2936"></path>
                    <path d="M25,37 L47,37" id="Path-2937"></path>
                </g>
            </g>
        </g>
    </g>
</svg>