<?xml version="1.0" encoding="UTF-8" standalone="no"?>
<svg width="70px" height="70px" viewBox="0 0 70 70" version="1.1" xmlns="http://www.w3.org/2000/svg" xmlns:xlink="http://www.w3.org/1999/xlink">
    <!-- Generator: Sketch 3.8.3 (29802) - http://www.bohemiancoding.com/sketch -->
    <title>icon-02-doc-pagecrypto</title>
    <desc>Created with Sketch.</desc>
    <defs>
        <path d="M36,11.5028229 L36,30.9943542 C36,33.7616406 33.7588961,36 30.9943542,36 L5.00564575,36 C2.23835942,36 0,33.7588961 0,30.9943542 L0,5.00564575 C0,2.23835942 2.24110394,0 5.00564575,0 L24.4971771,0 L36,0 L36,11.5028229 Z" id="path-1"></path>
        <mask id="mask-2" maskContentUnits="userSpaceOnUse" maskUnits="objectBoundingBox" x="0" y="0" width="36" height="36" fill="white">
            <use xlink:href="#path-1"></use>
        </mask>
    </defs>
    <g id="Page-1" stroke="none" stroke-width="1" fill="none" fill-rule="evenodd">
        <g id="kontur-products-icons-features-iconset" transform="translate(-290.000000, -620.000000)">
            <g id="Text" transform="translate(68.000000, 51.000000)" font-size="14" font-family="SegoeUI, Segoe UI" line-spacing="110" fill="#D0011B" font-weight="normal">
                <text id="Бизнес-и-бухгалтерия">
                    <tspan x="1" y="114">Бизнес и бухгалтерия</tspan>
                    <tspan x="1" y="224"></tspan>
                    <tspan x="1" y="334"></tspan>
                    <tspan x="1" y="444">Документы</tspan>
                    <tspan x="1" y="554"></tspan>
                    <tspan x="1" y="664"></tspan>
                    <tspan x="1" y="774">Сертификаты и подписи</tspan>
                    <tspan x="1" y="884">Компьютерные технологии</tspan>
                    <tspan x="1" y="994"></tspan>
                    <tspan x="1" y="1104"></tspan>
                    <tspan x="1" y="1214">Безопасность</tspan>
                    <tspan x="1" y="1324"></tspan>
                    <tspan x="1" y="1434">Обучение</tspan>
                    <tspan x="1" y="1544">Контролирующие органы</tspan>
                    <tspan x="1" y="1654">Государство</tspan>
                    <tspan x="1" y="1764">Здания</tspan>
                    <tspan x="1" y="1874">Люди</tspan>
                    <tspan x="1" y="1984">Символы</tspan>
                    <tspan x="1" y="2094"></tspan>
                    <tspan x="1" y="2204">Другое</tspan>
                    <tspan x="1" y="2314"></tspan>
                    <tspan x="1" y="2424">Акции</tspan>
                    <tspan x="1" y="2534">Контур</tspan>
                </text>
            </g>
            <g id="icon-02-doc-pagecrypto" transform="translate(290.000000, 620.000000)">
                <g id="Icon" transform="translate(8.000000, 5.000000)">
                    <g id="Paper" stroke-width="2" stroke="#A23A99">
                        <polyline id="Rectangle-1238" points="20 52 0 52 0 15.4302332 15.079546 0 41 0 41 27"></polyline>
                        <polyline id="Path-1342" points="0 15 15 15 15 0"></polyline>
                        <path d="M12,21 L29,21" id="Path-1344"></path>
                        <path d="M6,30 L17,30" id="Path-1345"></path>
                        <path d="M6,35 L17,35" id="Path-1346"></path>
                        <path d="M6,40 L17,40" id="Path-1347"></path>
                    </g>
                    <g id="crypto-36x36" transform="translate(19.000000, 26.000000)">
                        <use stroke="#A23A99" mask="url(#mask-2)" stroke-width="4" xlink:href="#path-1"></use>
                        <g id="Crypto-36" transform="translate(7.000000, 11.000000)">
                            <path d="M12.0929377,8.5 C11.2981625,10.8824731 9.04965631,12.6 6.4,12.6 C3.08629134,12.6 0.4,9.91370866 0.4,6.6 C0.4,3.28629134 3.08629134,0.6 6.4,0.6 C8.78422709,0.6 10.8436489,1.99065596 11.8113814,4.00508392 L22,4.02825038 L21.9999998,11 L17,11 L17,8.5 L12.0929377,8.5 Z" id="Oval-44" stroke="#A23A99" stroke-width="2" stroke-linecap="round" stroke-linejoin="round"></path>
                            <circle id="Oval-45" fill="#A23A99" cx="6.4" cy="6.6" r="2.1"></circle>
                        </g>
                    </g>
                </g>
            </g>
        </g>
    </g>
</svg>